<?xml version="1.0" encoding="UTF-8"?>
<!DOCTYPE svg PUBLIC "-//W3C//DTD SVG 1.1//EN" "http://www.w3.org/Graphics/SVG/1.1/DTD/svg11.dtd">
<!-- Creator: CorelDRAW X6 -->
<svg xmlns="http://www.w3.org/2000/svg" xml:space="preserve" width="3.93055in" height="10.0556in" version="1.1" style="shape-rendering:geometricPrecision; text-rendering:geometricPrecision; image-rendering:optimizeQuality; fill-rule:evenodd; clip-rule:evenodd"
viewBox="0 0 3931 10056"
 xmlns:xlink="http://www.w3.org/1999/xlink">
 <defs>
  <style type="text/css">
   <![CDATA[
    .str0 {stroke:#282828;stroke-width:41.6654;stroke-linecap:round;stroke-linejoin:round}
    .fil1 {fill:none;fill-rule:nonzero}
    .fil0 {fill:#282828;fill-rule:nonzero}
    .fil3 {fill:#2F924F;fill-rule:nonzero}
    .fil8 {fill:#319850;fill-rule:nonzero}
    .fil7 {fill:#424242;fill-rule:nonzero}
    .fil5 {fill:#EE8B36;fill-rule:nonzero}
    .fil2 {fill:#F8F186;fill-rule:nonzero}
    .fil4 {fill:#F9A647;fill-rule:nonzero}
    .fil6 {fill:#FEFEFE;fill-rule:nonzero}
   ]]>
  </style>
 </defs>
 <g id="Layer_x0020_1">
  <metadata id="CorelCorpID_0Corel-Layer"/>
  <path class="fil0" d="M2944 9271c-173,48 -489,112 -707,19 -62,90 -167,272 -144,446l463 16 8 -97c0,0 398,333 1356,65 0,0 -40,-254 -977,-449z"/>
  <path class="fil1 str0" d="M2944 9271c-173,48 -489,112 -707,19 -62,90 -167,272 -144,446l463 16 8 -97c0,0 398,333 1356,65 0,0 -40,-254 -977,-449l0 0z"/>
  <path class="fil0" d="M1773 9429c-152,55 -484,143 -788,3 -50,73 -142,246 -69,442 0,0 138,122 390,81l0 -73c0,0 536,325 1153,32 0,0 -128,-263 -686,-485z"/>
  <path class="fil1 str0" d="M1773 9429c-152,55 -484,143 -788,3 -50,73 -142,246 -69,442 0,0 138,122 390,81l0 -73c0,0 536,325 1153,32 0,0 -128,-263 -686,-485l0 0"/>
  <path class="fil2" d="M1809 6755l0 893c0,0 57,227 32,690 -24,463 16,544 16,544l0 512c0,0 -528,260 -958,-8 0,0 -16,-479 0,-512 16,-32 16,-609 -24,-707 -41,-97 -24,-666 -24,-666 0,0 -57,-934 -57,-1031 0,-97 0,-1064 0,-1064l2144 -301 -16 1364c0,0 81,463 89,512 8,49 -8,674 -8,674 0,0 16,390 57,512 41,122 16,536 -8,617 -24,81 41,447 41,447 0,0 -593,219 -893,24 0,0 16,-609 -24,-715 -41,-106 -32,-422 -32,-422 0,0 24,-625 -16,-739 0,0 -41,-406 -24,-593 0,0 -195,65 -292,-33z"/>
  <path class="fil1 str0" d="M1330 3945c0,0 -122,-398 -317,-715 0,0 -70,28 -153,91 122,199 399,883 462,3027 0,0 -539,13 -902,-106 -9,57 -22,240 138,260 0,0 796,171 1023,49 0,0 -114,-2185 -252,-2607l0 0zm-8 2404c-63,-2144 -340,-2828 -462,-3027 -104,79 -229,214 -269,420l-236 1835c0,0 -227,406 65,666 0,0 2,-12 0,0 362,119 902,106 902,106l0 0zm-244 -3427c0,0 -260,32 -203,625 0,0 162,520 357,690 0,0 57,-179 122,-236 0,0 89,625 146,1283l1056 -138c0,0 -187,-1308 -211,-1397 0,0 41,-195 89,57 0,0 -114,-690 -406,-853l-41 203c0,0 301,300 33,552 0,0 49,934 -8,1373 0,0 -317,-1170 -406,-1324 0,0 -642,-349 -528,-837l0 0zm1202 3809c0,0 -106,41 -179,57m-292 -33l0 893c0,0 57,227 32,690 -24,463 16,544 16,544l0 512c0,0 -528,260 -958,-8 0,0 -16,-479 0,-512 16,-32 16,-609 -24,-707 -41,-97 -24,-666 -24,-666 0,0 -57,-934 -57,-1031 0,-97 0,-1064 0,-1064l2144 -301 -16 1364c0,0 81,463 89,512 8,49 -8,674 -8,674 0,0 16,390 57,512 41,122 16,536 -8,617 -24,81 41,447 41,447 0,0 -593,219 -893,24 0,0 16,-609 -24,-715 -41,-106 -32,-422 -32,-422 0,0 24,-625 -16,-739 0,0 -41,-406 -24,-593 0,0 -195,65 -292,-33l0 0z"/>
  <path class="fil3" d="M1322 6349c-63,-2144 -340,-2828 -462,-3027 -104,79 -229,214 -269,420l-236 1835c0,0 -227,406 65,666 0,0 2,-12 0,0 362,119 902,106 902,106z"/>
  <path class="fil1 str0" d="M1322 6349c-63,-2144 -340,-2828 -462,-3027 -104,79 -229,214 -269,420l-236 1835c0,0 -227,406 65,666 0,0 2,-12 0,0 362,119 902,106 902,106l0 0z"/>
  <path class="fil4" d="M1330 3945c0,0 -122,-398 -317,-715 0,0 -70,28 -153,91 122,199 399,883 462,3027 0,0 -539,13 -902,-106 -9,57 -22,240 138,260 0,0 796,171 1023,49 0,0 -114,-2185 -252,-2607z"/>
  <path class="fil1 str0" d="M1330 3945c0,0 -122,-398 -317,-715 0,0 -70,28 -153,91 122,199 399,883 462,3027 0,0 -539,13 -902,-106 -9,57 -22,240 138,260 0,0 796,171 1023,49 0,0 -114,-2185 -252,-2607l0 0z"/>
  <path class="fil5" d="M2581 2166c-171,-57 -81,-260 -81,-260 73,-106 -16,-106 -16,-106l0 -244c219,-227 -24,-260 -24,-260l13 -88c4,-30 47,-487 -594,-528 0,0 -471,16 -631,246 0,0 -32,54 -214,203 0,0 326,150 225,1102 0,0 -118,21 -210,16 3,99 11,297 22,503 4,69 1,126 -6,174 9,-3 14,-3 14,-3 -114,487 528,837 528,837 89,154 406,1324 406,1324 57,-439 8,-1373 8,-1373 268,-252 -33,-552 -33,-552l13 -64 -13 -9 16 -195c0,0 162,-32 171,-146 8,-114 -97,-106 -97,-106 -16,106 -146,114 -146,114 0,0 -601,16 -577,-162 24,-179 219,-122 219,-122 374,73 902,0 902,0 0,0 365,-65 374,-154 8,-89 -268,-146 -268,-146z"/>
  <path class="fil1 str0" d="M2581 2166c-171,-57 -81,-260 -81,-260 73,-106 -16,-106 -16,-106l0 -244c219,-227 -24,-260 -24,-260l13 -88c4,-30 47,-487 -594,-528 0,0 -471,16 -631,246 0,0 -32,54 -214,203 0,0 326,150 225,1102 0,0 -118,21 -210,16 3,99 11,297 22,503 4,69 1,126 -6,174 9,-3 14,-3 14,-3 -114,487 528,837 528,837 89,154 406,1324 406,1324 57,-439 8,-1373 8,-1373 268,-252 -33,-552 -33,-552l13 -64 -13 -9 16 -195c0,0 162,-32 171,-146 8,-114 -97,-106 -97,-106 -16,106 -146,114 -146,114 0,0 -601,16 -577,-162 24,-179 219,-122 219,-122 374,73 902,0 902,0 0,0 365,-65 374,-154 8,-89 -268,-146 -268,-146l0 0z"/>
  <path class="fil6" d="M1915 1698c0,121 -113,219 -253,219 -140,0 -253,-98 -253,-219 0,-121 113,-219 253,-219 140,0 253,98 253,219z"/>
  <path class="fil1 str0" d="M1915 1698c0,121 -113,219 -253,219 -140,0 -253,-98 -253,-219 0,-121 113,-219 253,-219 140,0 253,98 253,219l0 0z"/>
  <path class="fil6" d="M2321 1488c-91,0 -169,49 -200,119 30,44 79,130 94,227 31,16 68,24 106,24 118,0 214,-83 214,-185 0,-102 -96,-185 -214,-185z"/>
  <path class="fil1 str0" d="M1456 2351c0,0 -166,0 -219,171 -53,171 48,177 48,177m1027 -412c0,0 198,-16 294,43m-508 -27l-396 48m396 -776c0,0 144,177 118,358 0,0 155,-5 182,107 27,112 -257,144 -257,144 0,0 -401,64 -401,-96 0,-160 198,-118 198,-118m384 -483c-91,0 -169,49 -200,119 30,44 79,130 94,227 31,16 68,24 106,24 118,0 214,-83 214,-185 0,-102 -96,-185 -214,-185l0 0z"/>
  <path class="fil0" d="M1649 1703c0,24 -19,43 -43,43 -24,0 -43,-19 -43,-43 0,-24 19,-43 43,-43 24,0 43,19 43,43z"/>
  <path class="fil0" d="M2413 1671c0,24 -19,43 -43,43 -24,0 -43,-19 -43,-43 0,-24 19,-43 43,-43 24,0 43,19 43,43z"/>
  <path class="fil5" d="M942 2192c0,0 -363,41 -337,-280 26,-317 264,-276 320,-214l17 494z"/>
  <path class="fil1 str0" d="M739 1816c0,0 128,11 198,112 0,0 -193,-150 -107,75m112 189c0,0 -363,41 -337,-280 26,-317 264,-276 320,-214l17 494 0 0z"/>
  <path class="fil7" d="M2847 773c-21,-401 -177,-765 -893,-765 -717,0 -1016,433 -1123,556 -107,123 -32,273 -32,273 -182,-102 -364,-11 -364,-11 -455,551 187,984 187,984l3 -1c61,-191 232,-178 301,-111l1 0 0 1c-1,-4 16,492 16,492l0 9c16,86 316,32 316,32 102,-952 -225,-1102 -225,-1102 182,-150 214,-203 214,-203 160,-230 631,-246 631,-246 663,43 594,530 594,530 401,-182 284,-503 284,-503 43,5 91,64 91,64z"/>
  <path class="fil1 str0" d="M2847 773c-21,-401 -177,-765 -893,-765 -717,0 -1016,433 -1123,556 -107,123 -32,273 -32,273 -182,-102 -364,-11 -364,-11 -455,551 187,984 187,984l3 -1c61,-191 232,-178 301,-111l1 0 0 1c-1,-4 16,492 16,492l0 9c16,86 316,32 316,32 102,-952 -225,-1102 -225,-1102 182,-150 214,-203 214,-203 160,-230 631,-246 631,-246 663,43 594,530 594,530 401,-182 284,-503 284,-503 43,5 91,64 91,64l0 0"/>
  <path class="fil6" d="M1574 2467c0,0 -37,-11 -81,-8l0 251c58,16 128,27 194,33l26 -256c-48,-5 -94,-11 -138,-20z"/>
  <path class="fil1 str0" d="M1574 2467c0,0 -37,-11 -81,-8l0 251c58,16 128,27 194,33l26 -256c-48,-5 -94,-11 -138,-20l0 0z"/>
  <path class="fil6" d="M1354 2589c-8,59 53,97 138,121l0 -251c-57,3 -124,29 -138,130z"/>
  <path class="fil1 str0" d="M1354 2589c-8,59 53,97 138,121l0 -251c-57,3 -124,29 -138,130l0 0z"/>
  <path class="fil6" d="M1712 2487l-26 256c83,8 162,9 206,9l11 -253c-64,-1 -128,-5 -191,-12z"/>
  <path class="fil1 str0" d="M1712 2487l-26 256c83,8 162,9 206,9l11 -253c-64,-1 -128,-5 -191,-12l0 0z"/>
  <path class="fil6" d="M1904 2498l-11 253c24,0 38,0 38,0 0,0 86,-5 127,-64l13 -189c-54,1 -110,2 -167,0z"/>
  <path class="fil1 str0" d="M1980 3360l8 -276m-211 1007c0,0 203,-73 114,-122 -89,-49 -24,106 41,114m-203 -106c0,0 211,-106 81,-146 -130,-41 32,138 130,114m-162 -171c0,0 211,24 138,-89 -73,-114 -89,122 16,162m-27 -1349l-11 253c24,0 38,0 38,0 0,0 86,-5 127,-64l13 -189c-54,1 -110,2 -167,0l0 0z"/>
  <path class="fil0" d="M1078 2922c0,0 -260,32 -203,625 0,0 162,520 357,690 0,0 81,-227 146,-284 0,0 89,950 89,1340l1088 -146c0,0 -187,-1308 -211,-1397 0,0 41,-195 89,57 0,0 -114,-690 -406,-853l-41 203c0,0 301,300 33,552 0,0 49,934 -8,1373 0,0 -317,-1170 -406,-1324 0,0 -642,-349 -528,-837z"/>
  <path class="fil1 str0" d="M1436 5902l8 138m-73 -861l8 138m-73 -861l8 138m-236 -1673c0,0 -260,32 -203,625 0,0 162,520 357,690 0,0 81,-227 146,-284 0,0 89,950 89,1340l1088 -146c0,0 -187,-1308 -211,-1397 0,0 41,-195 89,57 0,0 -114,-690 -406,-853l-41 203c0,0 301,300 33,552 0,0 49,934 -8,1373 0,0 -317,-1170 -406,-1324 0,0 -642,-349 -528,-837l0 0z"/>
  <path class="fil8" d="M3093 6195c276,-463 24,-837 24,-837 -114,-89 -227,-487 -227,-487 -247,-1224 -536,-1539 -618,-1608 115,249 164,544 164,544 0,0 341,1015 374,2445 0,0 219,-33 284,-57z"/>
  <path class="fil1 str0" d="M3093 6195c276,-463 24,-837 24,-837 -114,-89 -227,-487 -227,-487 -247,-1224 -536,-1539 -618,-1608 115,249 164,544 164,544 0,0 341,1015 374,2445 0,0 219,-33 284,-57l0 0z"/>
  <path class="fil4" d="M2808 6252c-32,-1429 -374,-2445 -374,-2445 -41,-214 -77,-105 -87,-68 44,200 83,479 118,781 48,324 91,627 91,627l-28 4c60,688 93,1320 93,1320 317,33 479,-114 479,-114l-8 -162c-65,24 -284,57 -284,57z"/>
  <path class="fil1 str0" d="M2808 6252c-32,-1429 -374,-2445 -374,-2445 -41,-214 -77,-105 -87,-68 44,200 83,479 118,781 48,324 91,627 91,627l-28 4c60,688 93,1320 93,1320 317,33 479,-114 479,-114l-8 -162c-65,24 -284,57 -284,57l0 0z"/>
  <path class="fil8" d="M2792 4643c-365,-97 -398,32 -398,32 317,422 49,739 49,739 -41,73 65,81 65,81 942,16 877,-325 877,-325 97,-528 -609,-1511 -609,-1511 -317,-365 -365,-227 -365,-227 0,0 325,569 382,1210z"/>
  <path class="fil1 str0" d="M2792 4643c-365,-97 -398,32 -398,32 317,422 49,739 49,739 -41,73 65,81 65,81 942,16 877,-325 877,-325 97,-528 -609,-1511 -609,-1511 -317,-365 -365,-227 -365,-227 0,0 325,569 382,1210l0 0z"/>
  <path class="fil8" d="M2458 5394c51,-75 198,-347 -47,-695 -83,13 -187,26 -187,26 0,0 236,341 49,658l186 12z"/>
  <path class="fil1 str0" d="M2458 5394c51,-75 198,-347 -47,-695 -83,13 -187,26 -187,26 0,0 236,341 49,658l186 12 0 0z"/>
  <polygon class="fil8" points="2954,4668 2792,4643 "/>
  <line class="fil1 str0" x1="2954" y1="4668" x2="2792" y2= "4643" />
  <path class="fil8" d="M753 4879c0,0 8,-869 97,-1096 0,0 16,-203 -138,-236 -154,-32 -284,244 -284,244 0,0 -439,837 -406,1332 0,0 -49,577 682,569 0,0 463,16 690,-179 0,0 171,-447 -203,-698 0,0 -365,106 -439,65z"/>
  <path class="fil1 str0" d="M753 4879c0,0 8,-869 97,-1096 0,0 16,-203 -138,-236 -154,-32 -284,244 -284,244 0,0 -439,837 -406,1332 0,0 -49,577 682,569 0,0 463,16 690,-179 0,0 171,-447 -203,-698 0,0 -365,106 -439,65l0 0"/>
  <path class="fil8" d="M1452 4863l-179 17c255,246 133,602 123,631 91,53 162,-6 162,-6 203,-268 -106,-642 -106,-642z"/>
  <path class="fil1 str0" d="M1452 4863l-179 17c255,246 133,602 123,631 91,53 162,-6 162,-6 203,-268 -106,-642 -106,-642l0 0z"/>
  <path class="fil8" d="M559 4838c0,0 122,32 195,41l-195 -41z"/>
  <path class="fil1 str0" d="M559 4838c0,0 122,32 195,41"/>
  <path class="fil5" d="M2015 4338c53,-77 0,-144 0,-144 -105,-130 -211,35 -211,35 -219,-127 -365,487 -397,638l45 -4c0,0 274,331 136,594 50,7 143,18 188,13 63,-7 218,-109 200,-372 -18,-264 84,-643 84,-643 39,-112 -46,-116 -46,-116z"/>
  <path class="fil1 str0" d="M1632 4598c0,0 70,-292 172,-369m-14 471c0,0 42,-358 225,-362m0 0c53,-77 0,-144 0,-144 -105,-130 -211,35 -211,35 -219,-127 -365,487 -397,638l45 -4c0,0 274,331 136,594 50,7 143,18 188,13 63,-7 218,-109 200,-372 -18,-264 84,-643 84,-643 39,-112 -46,-116 -46,-116l0 0z"/>
  <path class="fil5" d="M2173 4373c0,-246 -126,-227 -182,-204 8,7 16,15 24,25 0,0 53,67 0,144 137,-84 158,35 158,35z"/>
  <path class="fil1 str0" d="M2173 4373c0,-246 -126,-227 -182,-204 8,7 16,15 24,25 0,0 53,67 0,144 137,-84 158,35 158,35l0 0z"/>
  <path class="fil5" d="M2272 5382c143,-242 39,-498 -18,-606 -26,-8 -42,-25 -42,-25 18,-408 -39,-380 -39,-380 0,0 -21,-119 -158,-35 0,0 84,4 46,116 0,0 -102,380 -84,643 6,95 -10,169 -36,225 105,149 308,86 367,63l-35 -2z"/>
  <path class="fil1 str0" d="M2272 5382c143,-242 39,-498 -18,-606 -26,-8 -42,-25 -42,-25 18,-408 -39,-380 -39,-380 0,0 -21,-119 -158,-35 0,0 84,4 46,116 0,0 -102,380 -84,643 6,95 -10,169 -36,225 105,149 308,86 367,63l-35 -2 0 0z"/>
 </g>
</svg>
