<?xml version="1.0" encoding="UTF-8" standalone="no"?>
<svg
   xmlns:dc="http://purl.org/dc/elements/1.1/"
   xmlns:cc="http://creativecommons.org/ns#"
   xmlns:rdf="http://www.w3.org/1999/02/22-rdf-syntax-ns#"
   xmlns:svg="http://www.w3.org/2000/svg"
   xmlns="http://www.w3.org/2000/svg"
   viewBox="0 0 474.21332 971.1333"
   height="971.1333"
   width="474.21332"
   xml:space="preserve"
   id="svg2"
   version="1.1"><metadata
     id="metadata8"><rdf:RDF><cc:Work
         rdf:about=""><dc:format>image/svg+xml</dc:format><dc:type
           rdf:resource="http://purl.org/dc/dcmitype/StillImage" /></cc:Work></rdf:RDF></metadata><defs
     id="defs6" /><g
     transform="matrix(1.3333333,0,0,-1.3333333,0,971.13333)"
     id="g10"><g
       transform="scale(0.1)"
       id="g12"><path
         id="path14"
         style="fill:#ed1e24;fill-opacity:1;fill-rule:nonzero;stroke:none"
         d="m 1124.85,3452.96 270.69,363.73 c 0,0 437.6,-21.83 622,137.61 -33.07,38.17 -87.36,78.46 -173.69,90.79 -177.63,25.38 -710.54,25.37 -930.467,-101.51 l -10,-19.99 c 83.48,-73.83 227.487,-235.73 221.467,-470.63" /><path
         id="path16"
         style="fill:none;stroke:#100f0d;stroke-width:40;stroke-linecap:round;stroke-linejoin:round;stroke-miterlimit:4;stroke-dasharray:none;stroke-opacity:1"
         d="m 1124.85,3452.96 270.69,363.73 c 0,0 437.6,-21.83 622,137.61 -33.07,38.17 -87.36,78.46 -173.69,90.79 -177.63,25.38 -710.54,25.37 -930.467,-101.51 l -10,-19.99 c 83.48,-73.83 227.487,-235.73 221.467,-470.63 z" /><path
         id="path18"
         style="fill:#fbc907;fill-opacity:1;fill-rule:nonzero;stroke:none"
         d="m 2389.57,4795.69 c 0,0 -169.24,184.61 107.7,246.15 0,0 -230.79,246.15 123.06,400 0,0 -323.06,215.39 -46.15,415.39 0,0 -476.91,0 -323.07,353.84 0,0 -430.78,-123.08 -461.54,230.77 0,0 -292.31,-261.53 -384.62,30.77 0,0 -276.92,-46.15 -307.69,-261.54 L 758.801,5826.46 c 0,0 -261.539,-200.01 -153.852,-461.54 0,0 -307.691,123.07 -353.844,15.38 -46.156,-107.69 200,-338.46 538.461,-553.84 0,0 -30.765,-107.7 107.696,-323.08 115.328,-179.4 198.478,-348.31 116.408,-701.96 61.24,-85.87 114.91,-203.18 111.18,-348.46 l 270.69,363.73 c 0,0 233.97,-11.66 431.84,44.41 -19.98,142.46 -48.51,542.86 254.5,580.74 0,0 138.45,-307.7 492.3,-61.54 0,0 230.76,323.08 -184.61,415.39" /><path
         id="path20"
         style="fill:none;stroke:#100f0d;stroke-width:40;stroke-linecap:round;stroke-linejoin:round;stroke-miterlimit:4;stroke-dasharray:none;stroke-opacity:1"
         d="m 2389.57,4795.69 c 0,0 -169.24,184.61 107.7,246.15 0,0 -230.79,246.15 123.06,400 0,0 -323.06,215.39 -46.15,415.39 0,0 -476.91,0 -323.07,353.84 0,0 -430.78,-123.08 -461.54,230.77 0,0 -292.31,-261.53 -384.62,30.77 0,0 -276.92,-46.15 -307.69,-261.54 L 758.801,5826.46 c 0,0 -261.539,-200.01 -153.852,-461.54 0,0 -307.691,123.07 -353.844,15.38 -46.156,-107.69 200,-338.46 538.461,-553.84 0,0 -30.765,-107.7 107.696,-323.08 115.328,-179.4 198.478,-348.31 116.408,-701.96 61.24,-85.87 114.91,-203.18 111.18,-348.46 l 270.69,363.73 c 0,0 233.97,-11.66 431.84,44.41 -19.98,142.46 -48.51,542.86 254.5,580.74 0,0 138.45,-307.7 492.3,-61.54 0,0 230.76,323.08 -184.61,415.39 z" /><path
         id="path22"
         style="fill:#f57a14;fill-opacity:1;fill-rule:nonzero;stroke:none"
         d="m 3420.33,5749.54 c 200,630.77 -323.06,630.76 -323.06,630.76 230.76,692.31 -538.48,538.47 -538.48,538.47 -384.61,507.68 -769.22,153.84 -769.22,153.84 -476.93,492.31 -707.69,-123.07 -707.69,-123.07 -538.466,92.3 -430.775,-430.77 -430.775,-430.77 -600.0034,-15.39 -200,-492.31 -200,-492.31 -281.882,-302.76 -32.445,-378.79 157.036,-396.4 50.914,120.01 150.66,196.4 150.66,196.4 l 338.459,384.61 c 30.77,215.39 307.69,261.54 307.69,261.54 92.31,-292.3 384.62,-30.77 384.62,-30.77 30.76,-353.85 461.54,-230.77 461.54,-230.77 -153.84,-353.84 323.07,-353.84 323.07,-353.84 -276.91,-200 46.15,-415.39 46.15,-415.39 -353.85,-153.85 -123.06,-400 -123.06,-400 -276.94,-61.54 -107.7,-246.15 -107.7,-246.15 415.37,-92.31 184.61,-415.39 184.61,-415.39 -353.85,-246.16 -492.3,61.54 -492.3,61.54 -83.42,-10.43 -141.67,-48.39 -181.92,-100.83 95.14,-296.78 381.92,-176.09 381.92,-176.09 276.91,-215.39 584.6,138.46 584.6,138.46 276.94,61.54 292.31,307.69 292.31,307.69 538.46,138.47 261.54,600 261.54,600 261.55,323.08 0,538.47 0,538.47" /><path
         id="path24"
         style="fill:none;stroke:#100f0d;stroke-width:40;stroke-linecap:round;stroke-linejoin:round;stroke-miterlimit:4;stroke-dasharray:none;stroke-opacity:1"
         d="m 3420.33,5749.54 c 200,630.77 -323.06,630.76 -323.06,630.76 230.76,692.31 -538.48,538.47 -538.48,538.47 -384.61,507.68 -769.22,153.84 -769.22,153.84 -476.93,492.31 -707.69,-123.07 -707.69,-123.07 -538.466,92.3 -430.775,-430.77 -430.775,-430.77 -600.0034,-15.39 -200,-492.31 -200,-492.31 -281.882,-302.76 -32.445,-378.79 157.036,-396.4 50.914,120.01 150.66,196.4 150.66,196.4 l 338.459,384.61 c 30.77,215.39 307.69,261.54 307.69,261.54 92.31,-292.3 384.62,-30.77 384.62,-30.77 30.76,-353.85 461.54,-230.77 461.54,-230.77 -153.84,-353.84 323.07,-353.84 323.07,-353.84 -276.91,-200 46.15,-415.39 46.15,-415.39 -353.85,-153.85 -123.06,-400 -123.06,-400 -276.94,-61.54 -107.7,-246.15 -107.7,-246.15 415.37,-92.31 184.61,-415.39 184.61,-415.39 -353.85,-246.16 -492.3,61.54 -492.3,61.54 -83.42,-10.43 -141.67,-48.39 -181.92,-100.83 95.14,-296.78 381.92,-176.09 381.92,-176.09 276.91,-215.39 584.6,138.46 584.6,138.46 276.94,61.54 292.31,307.69 292.31,307.69 538.46,138.47 261.54,600 261.54,600 261.55,323.08 0,538.47 0,538.47 z" /><path
         id="path26"
         style="fill:#ffffff;fill-opacity:1;fill-rule:nonzero;stroke:none"
         d="m 2004.96,5492.77 c 0,-178.43 -144.65,-323.08 -323.08,-323.08 -178.44,0 -323.08,144.65 -323.08,323.08 0,178.43 144.64,323.07 323.08,323.07 178.43,0 323.08,-144.64 323.08,-323.07" /><path
         id="path28"
         style="fill:none;stroke:#100f0d;stroke-width:40;stroke-linecap:round;stroke-linejoin:round;stroke-miterlimit:4;stroke-dasharray:none;stroke-opacity:1"
         d="m 2004.96,5492.77 c 0,-178.43 -144.65,-323.08 -323.08,-323.08 -178.44,0 -323.08,144.65 -323.08,323.08 0,178.43 144.64,323.07 323.08,323.07 178.43,0 323.08,-144.64 323.08,-323.07 z" /><path
         id="path30"
         style="fill:#ffffff;fill-opacity:1;fill-rule:nonzero;stroke:none"
         d="m 1035.72,6226.45 c -169.939,0 -307.693,-137.75 -307.693,-307.69 0,-123.91 73.286,-230.64 178.844,-279.4 52.129,11.61 99.659,-4.35 138.229,-28.05 165.59,4.97 298.31,140.67 298.31,307.45 0,169.94 -137.76,307.69 -307.69,307.69" /><path
         id="path32"
         style="fill:none;stroke:#100f0d;stroke-width:40;stroke-linecap:round;stroke-linejoin:round;stroke-miterlimit:4;stroke-dasharray:none;stroke-opacity:1"
         d="m 1035.72,6226.45 c -169.939,0 -307.693,-137.75 -307.693,-307.69 0,-123.91 73.286,-230.64 178.844,-279.4 52.129,11.61 99.659,-4.35 138.229,-28.05 165.59,4.97 298.31,140.67 298.31,307.45 0,169.94 -137.76,307.69 -307.69,307.69 z" /><path
         id="path34"
         style="fill:#100f0d;fill-opacity:1;fill-rule:nonzero;stroke:none"
         d="m 1651.1,5703.38 c 0,-42.48 -34.43,-76.92 -76.92,-76.92 -42.48,0 -76.91,34.44 -76.91,76.92 0,42.48 34.43,76.92 76.91,76.92 42.49,0 76.92,-34.44 76.92,-76.92" /><path
         id="path36"
         style="fill:#100f0d;fill-opacity:1;fill-rule:nonzero;stroke:none"
         d="m 1020.33,6072.61 c 0,-42.48 -34.435,-76.92 -76.916,-76.92 -42.48,0 -76.922,34.44 -76.922,76.92 0,42.48 34.442,76.92 76.922,76.92 42.481,0 76.916,-34.44 76.916,-76.92" /><path
         id="path38"
         style="fill:none;stroke:#100f0d;stroke-width:40;stroke-linecap:round;stroke-linejoin:round;stroke-miterlimit:4;stroke-dasharray:none;stroke-opacity:1"
         d="m 1358.8,6611.07 46.15,-138.46 m 292.32,-1907.69 c 0,0 -800.012,123.08 -907.704,261.54 m 15.383,523.08 c 0,0 -169.23,-30.78 -200,15.38 m 538.461,153.84 c 0,0 -169.23,246.16 -353.844,46.16 -184.617,-200 292.314,-353.85 292.314,-353.85 m 1430.76,-646.15 c 0,0 -138.46,138.46 -215.37,61.54 0,0 200,-107.69 0,-200 m -492.33,292.3 c 0,0 184.63,-169.23 0,-276.92" /><path
         id="path40"
         style="fill:#2b7f5e;fill-opacity:1;fill-rule:nonzero;stroke:none"
         d="M 2349.55,2006.31 C 1729.14,1684.68 747.629,1922.1 451.211,2005.76 476.582,1952.5 532.75,1845.8 532.75,1845.8 c 0,0 -126.883,-414.48 -169.176,-735.91 0,0 634.406,-143.808 922.006,-76.15 l -16.91,-67.65 c 0,0 668.24,-101.52 1015.06,42.28 0,0 -101.5,516 -42.3,625.96 0,0 146.23,138.76 108.12,371.98" /><path
         id="path42"
         style="fill:none;stroke:#100f0d;stroke-width:40;stroke-linecap:round;stroke-linejoin:round;stroke-miterlimit:4;stroke-dasharray:none;stroke-opacity:1"
         d="m 879.563,1617.42 c 0,0 296.057,-160.74 414.477,-160.74 l -8.46,-422.94 m 1063.97,972.57 C 1729.14,1684.68 747.629,1922.1 451.211,2005.76 476.582,1952.5 532.75,1845.8 532.75,1845.8 c 0,0 -126.883,-414.48 -169.176,-735.91 0,0 634.406,-143.808 922.006,-76.15 l -16.91,-67.65 c 0,0 668.24,-101.52 1015.06,42.28 0,0 -101.5,516 -42.3,625.96 0,0 146.23,138.76 108.12,371.98 z" /><path
         id="path44"
         style="fill:#fbc907;fill-opacity:1;fill-rule:nonzero;stroke:none"
         d="m 1548.98,515.73 c 0,0 49.97,3.329 193.21,-23.32 143.24,-26.648 79.94,-159.898 79.94,-159.898 100.1,-55.922 322.34,25.98 372.67,45.789 -35.25,138.101 -101.97,420.539 -101.25,577.969 -182.38,-31.418 -394.27,-28.098 -557.68,-17.36 -4.86,-106.621 -12.28,-309.93 -4.22,-421.859 9.99,0.328 17.33,-1.321 17.33,-1.321" /><path
         id="path46"
         style="fill:none;stroke:#100f0d;stroke-width:40;stroke-linecap:round;stroke-linejoin:round;stroke-miterlimit:4;stroke-dasharray:none;stroke-opacity:1"
         d="m 1548.98,515.73 c 0,0 49.97,3.329 193.21,-23.32 143.24,-26.648 79.94,-159.898 79.94,-159.898 100.1,-55.922 322.34,25.98 372.67,45.789 -35.25,138.101 -101.97,420.539 -101.25,577.969 -182.38,-31.418 -394.27,-28.098 -557.68,-17.36 -4.86,-106.621 -12.28,-309.93 -4.22,-421.859 9.99,0.328 17.33,-1.321 17.33,-1.321 z" /><path
         id="path48"
         style="fill:#fbc907;fill-opacity:1;fill-rule:nonzero;stroke:none"
         d="m 479.691,742.23 c 0,0 73.289,6.661 216.524,-19.988 143.238,-26.652 83.277,-173.211 83.277,-173.211 85.387,-47.73 259.698,4.891 340.358,33.688 -16.94,105.351 -28.11,312.031 -33.5,432.961 -179.42,0.45 -392.752,31.79 -540.955,58.24 L 476.793,743.379 c 1.793,-0.66 2.898,-1.149 2.898,-1.149" /><path
         id="path50"
         style="fill:none;stroke:#100f0d;stroke-width:40;stroke-linecap:round;stroke-linejoin:round;stroke-miterlimit:4;stroke-dasharray:none;stroke-opacity:1"
         d="m 479.691,742.23 c 0,0 73.289,6.661 216.524,-19.988 143.238,-26.652 83.277,-173.211 83.277,-173.211 85.387,-47.73 259.698,4.891 340.358,33.688 -16.94,105.351 -28.11,312.031 -33.5,432.961 -179.42,0.45 -392.752,31.79 -540.955,58.24 L 476.793,743.379 c 1.793,-0.66 2.898,-1.149 2.898,-1.149 z" /><path
         id="path52"
         style="fill:#ed1e24;fill-opacity:1;fill-rule:nonzero;stroke:none"
         d="m 862.641,3782.87 c 0,0 -575.196,-135.35 -499.067,-583.67 0,0 109.965,287.6 490.61,33.84 0,0 50.754,279.15 50.754,329.89 l -118.422,8.47 76.125,211.47" /><path
         id="path54"
         style="fill:none;stroke:#100f0d;stroke-width:40;stroke-linecap:round;stroke-linejoin:round;stroke-miterlimit:4;stroke-dasharray:none;stroke-opacity:1"
         d="m 862.641,3782.87 c 0,0 -575.196,-135.35 -499.067,-583.67 0,0 109.965,287.6 490.61,33.84 0,0 50.754,279.15 50.754,329.89 l -118.422,8.47 76.125,211.47 z" /><path
         id="path56"
         style="fill:#ed1e24;fill-opacity:1;fill-rule:nonzero;stroke:none"
         d="m 2055.43,3625.35 8.36,250.57 c 0,0 -11.25,38 -46.25,78.38 -184.4,-159.44 -622,-137.61 -622,-137.61 l -1.2,-1.6 c 42.72,-62.86 106.33,-182.76 128.08,-362.13 0,0 325.53,57.47 533.01,172.39" /><path
         id="path58"
         style="fill:none;stroke:#100f0d;stroke-width:40;stroke-linecap:round;stroke-linejoin:round;stroke-miterlimit:4;stroke-dasharray:none;stroke-opacity:1"
         d="m 2055.43,3625.35 8.36,250.57 c 0,0 -11.25,38 -46.25,78.38 -184.4,-159.44 -622,-137.61 -622,-137.61 l -1.2,-1.6 c 42.72,-62.86 106.33,-182.76 128.08,-362.13 0,0 325.53,57.47 533.01,172.39 z" /><path
         id="path60"
         style="fill:#ed1e24;fill-opacity:1;fill-rule:nonzero;stroke:none"
         d="m 2173.75,2886.22 -118.42,735.93 0.1,3.2 c -207.48,-114.92 -533.01,-172.39 -533.01,-172.39 -21.75,179.37 -85.36,299.27 -128.08,362.13 l -269.49,-362.13 c 6.02,234.9 -137.987,396.8 -221.467,470.63 L 828.191,3773.2 c 21.559,6.62 34.45,9.67 34.45,9.67 l -76.125,-211.47 118.422,-8.47 c 0,-50.74 -50.754,-329.89 -50.754,-329.89 -5.868,3.92 -11.668,7.69 -17.411,11.35 l 8.942,-53.63 c 0,0 -414.461,-448.31 -482.141,-1158.86 0,0 1319.566,-431.4 2047.036,8.46 0,0 25.35,634.4 -236.86,845.86" /><path
         id="path62"
         style="fill:none;stroke:#100f0d;stroke-width:40;stroke-linecap:round;stroke-linejoin:round;stroke-miterlimit:4;stroke-dasharray:none;stroke-opacity:1"
         d="m 2173.75,2886.22 -118.42,735.93 0.1,3.2 c -207.48,-114.92 -533.01,-172.39 -533.01,-172.39 -21.75,179.37 -85.36,299.27 -128.08,362.13 l -269.49,-362.13 c 6.02,234.9 -137.987,396.8 -221.467,470.63 L 828.191,3773.2 c 21.559,6.62 34.45,9.67 34.45,9.67 l -76.125,-211.47 118.422,-8.47 c 0,-50.74 -50.754,-329.89 -50.754,-329.89 -5.868,3.92 -11.668,7.69 -17.411,11.35 l 8.942,-53.63 c 0,0 -414.461,-448.31 -482.141,-1158.86 0,0 1319.566,-431.4 2047.036,8.46 0,0 25.35,634.4 -236.86,845.86 z" /><path
         id="path64"
         style="fill:#ed1e24;fill-opacity:1;fill-rule:nonzero;stroke:none"
         d="m 2368.3,3030.02 c 0,0 -25.37,676.72 -389.1,634.42 -399.43,-46.45 -372.18,-676.7 -372.18,-676.7 380.64,228.39 761.28,42.28 761.28,42.28" /><path
         id="path66"
         style="fill:none;stroke:#100f0d;stroke-width:40;stroke-linecap:round;stroke-linejoin:round;stroke-miterlimit:4;stroke-dasharray:none;stroke-opacity:1"
         d="m 2368.3,3030.02 c 0,0 -25.37,676.72 -389.1,634.42 -399.43,-46.45 -372.18,-676.7 -372.18,-676.7 380.64,228.39 761.28,42.28 761.28,42.28 z" /><path
         id="path68"
         style="fill:#ed1e24;fill-opacity:1;fill-rule:nonzero;stroke:none"
         d="m 1607.02,2987.74 c 380.64,-219.93 761.28,42.28 761.28,42.28 0,0 -380.64,186.11 -761.28,-42.28" /><path
         id="path70"
         style="fill:none;stroke:#100f0d;stroke-width:40;stroke-linecap:round;stroke-linejoin:round;stroke-miterlimit:4;stroke-dasharray:none;stroke-opacity:1"
         d="m 1607.02,2987.74 c 380.64,-219.93 761.28,42.28 761.28,42.28 0,0 -380.64,186.11 -761.28,-42.28 z" /><path
         id="path72"
         style="fill:#ed1e24;fill-opacity:1;fill-rule:nonzero;stroke:none"
         d="M 938.762,3723.66 904.938,3562.93" /><path
         id="path74"
         style="fill:none;stroke:#100f0d;stroke-width:40;stroke-linecap:round;stroke-linejoin:round;stroke-miterlimit:4;stroke-dasharray:none;stroke-opacity:1"
         d="M 938.762,3723.66 904.938,3562.93" /><path
         id="path76"
         style="fill:#9d2020;fill-opacity:1;fill-rule:nonzero;stroke:none"
         d="m 676.23,529.039 c -26.375,39.57 -215.566,91.641 -293.222,111.609 l -13.242,-35 c 0,0 -24.778,1.684 -60.188,-0.437 91.324,-37.449 310.024,-136.129 310.024,-136.129 l 56.628,59.957" /><path
         id="path78"
         style="fill:none;stroke:#100f0d;stroke-width:40;stroke-linecap:round;stroke-linejoin:round;stroke-miterlimit:4;stroke-dasharray:none;stroke-opacity:1"
         d="m 676.23,529.039 c -26.375,39.57 -215.566,91.641 -293.222,111.609 l -13.242,-35 c 0,0 -24.778,1.684 -60.188,-0.437 91.324,-37.449 310.024,-136.129 310.024,-136.129 l 56.628,59.957 z" /><path
         id="path80"
         style="fill:#9d2020;fill-opacity:1;fill-rule:nonzero;stroke:none"
         d="m 1207.1,472.039 c -5.55,40.16 -18,86.473 -44.53,126.949 0,0 -269.82,-113.246 -383.078,-49.957 0,0 59.961,146.559 -83.277,173.211 -143.235,26.649 -216.524,19.988 -216.524,19.988 0,0 -43.304,19.981 -63.289,-13.328 L 383.008,640.648 C 460.664,620.68 649.855,568.609 676.23,529.039 l -56.628,-59.957 c 0,0 -218.7,98.68 -310.024,136.129 C 233.941,600.68 109.594,578.75 73.2969,485.742 l -2.0156,-3.273 C 238.227,388.582 377.77,412.082 642.922,405.789 c 234.808,-5.59 481.718,46.871 564.178,66.25" /><path
         id="path82"
         style="fill:none;stroke:#100f0d;stroke-width:40;stroke-linecap:round;stroke-linejoin:round;stroke-miterlimit:4;stroke-dasharray:none;stroke-opacity:1"
         d="m 1207.1,472.039 c -5.55,40.16 -18,86.473 -44.53,126.949 0,0 -269.82,-113.246 -383.078,-49.957 0,0 59.961,146.559 -83.277,173.211 -143.235,26.649 -216.524,19.988 -216.524,19.988 0,0 -43.304,19.981 -63.289,-13.328 L 383.008,640.648 C 460.664,620.68 649.855,568.609 676.23,529.039 l -56.628,-59.957 c 0,0 -218.7,98.68 -310.024,136.129 C 233.941,600.68 109.594,578.75 73.2969,485.742 l -2.0156,-3.273 C 238.227,388.582 377.77,412.082 642.922,405.789 c 234.808,-5.59 481.718,46.871 564.178,66.25 z" /><path
         id="path84"
         style="fill:#9d2020;fill-opacity:1;fill-rule:nonzero;stroke:none"
         d="M 642.922,405.789 C 377.77,412.082 238.227,388.582 71.2813,482.469 L 20,399.129 c 0,0 66.625,-133.258 529.648,-123.27 463.022,9.993 659.562,96.61 659.562,96.61 0,0 5.59,43.883 -2.11,99.57 -82.46,-19.379 -329.37,-71.84 -564.178,-66.25" /><path
         id="path86"
         style="fill:none;stroke:#100f0d;stroke-width:40;stroke-linecap:round;stroke-linejoin:round;stroke-miterlimit:4;stroke-dasharray:none;stroke-opacity:1"
         d="M 642.922,405.789 C 377.77,412.082 238.227,388.582 71.2813,482.469 L 20,399.129 c 0,0 66.625,-133.258 529.648,-123.27 463.022,9.993 659.562,96.61 659.562,96.61 0,0 5.59,43.883 -2.11,99.57 -82.46,-19.379 -329.37,-71.84 -564.178,-66.25 z" /><path
         id="path88"
         style="fill:#9d2020;fill-opacity:1;fill-rule:nonzero;stroke:none"
         d="m 1718.87,312.52 c -26.38,39.57 -188.92,84.98 -266.58,104.949 l -13.24,-35 c 0,0 5.2,-21.637 -30.21,-23.75 91.33,-37.457 253.4,-106.149 253.4,-106.149 l 56.63,59.95" /><path
         id="path90"
         style="fill:none;stroke:#100f0d;stroke-width:40;stroke-linecap:round;stroke-linejoin:round;stroke-miterlimit:4;stroke-dasharray:none;stroke-opacity:1"
         d="m 1718.87,312.52 c -26.38,39.57 -188.92,84.98 -266.58,104.949 l -13.24,-35 c 0,0 5.2,-21.637 -30.21,-23.75 91.33,-37.457 253.4,-106.149 253.4,-106.149 l 56.63,59.95 z" /><path
         id="path92"
         style="fill:#9d2020;fill-opacity:1;fill-rule:nonzero;stroke:none"
         d="m 2249.75,255.531 c -5.57,40.168 -18.01,86.481 -44.54,126.938 0,0 -269.82,-113.239 -383.08,-49.957 0,0 63.3,133.25 -79.94,159.898 -143.24,26.649 -193.21,23.32 -193.21,23.32 0,0 -43.31,9.989 -63.29,-23.32 l -33.4,-74.941 c 77.66,-19.969 240.2,-65.379 266.58,-104.949 l -56.63,-59.95 c 0,0 -162.07,68.692 -253.4,106.149 -75.64,-4.539 -184.64,-46.5 -220.93,-139.539 l -2.02,-3.258 c 166.95,-93.883 264.49,-86.961 529.64,-93.27 234.82,-5.601 451.76,113.508 534.22,132.879" /><path
         id="path94"
         style="fill:none;stroke:#100f0d;stroke-width:40;stroke-linecap:round;stroke-linejoin:round;stroke-miterlimit:4;stroke-dasharray:none;stroke-opacity:1"
         d="m 2249.75,255.531 c -5.57,40.168 -18.01,86.481 -44.54,126.938 0,0 -269.82,-113.239 -383.08,-49.957 0,0 63.3,133.25 -79.94,159.898 -143.24,26.649 -193.21,23.32 -193.21,23.32 0,0 -43.31,9.989 -63.29,-23.32 l -33.4,-74.941 c 77.66,-19.969 240.2,-65.379 266.58,-104.949 l -56.63,-59.95 c 0,0 -162.07,68.692 -253.4,106.149 -75.64,-4.539 -184.64,-46.5 -220.93,-139.539 l -2.02,-3.258 c 166.95,-93.883 264.49,-86.961 529.64,-93.27 234.82,-5.601 451.76,113.508 534.22,132.879 z" /><path
         id="path96"
         style="fill:#9d2020;fill-opacity:1;fill-rule:nonzero;stroke:none"
         d="m 1715.53,122.652 c -265.15,6.309 -362.69,-0.613 -529.64,93.27 l -51.28,-83.352 c 0,0 -12.01,-123.17156 451.01,-113.1794 463.03,9.9883 666.22,136.5784 666.22,136.5784 0,0 5.6,43.883 -2.09,99.562 -82.46,-19.371 -299.4,-138.48 -534.22,-132.879" /><path
         id="path98"
         style="fill:none;stroke:#100f0d;stroke-width:40;stroke-linecap:round;stroke-linejoin:round;stroke-miterlimit:4;stroke-dasharray:none;stroke-opacity:1"
         d="m 914.254,2173.72 c 0,0 81.414,-56.36 175.356,-43.83 m -319.407,544.87 c 0,0 -31.312,100.21 0,137.77 M 1715.53,122.652 c -265.15,6.309 -362.69,-0.613 -529.64,93.27 l -51.28,-83.352 c 0,0 -12.01,-123.17156 451.01,-113.1794 463.03,9.9883 666.22,136.5784 666.22,136.5784 0,0 5.6,43.883 -2.09,99.562 -82.46,-19.371 -299.4,-138.48 -534.22,-132.879 z" /><path
         id="path100"
         style="fill:#fbc907;fill-opacity:1;fill-rule:nonzero;stroke:none"
         d="m 1745.31,3053.74 c -4.74,-71.2 -21.35,-205.4 -79.51,-272.52 0,0 -106.46,-93.94 -181.62,-125.25 0,0 -50.1,-18.79 -75.16,18.79 0,0 -43.84,156.58 -181.62,106.46 -137.79,-50.09 -56.37,-150.3 -37.58,-187.89 0,0 19.86,-39.8 -5.54,-68.73 9.36,-8.74 14.27,-19.11 11.8,-31.46 -12.52,-62.63 -150.31,-75.16 -150.31,-75.16 0,0 -175.36,31.32 -175.36,-68.89 0,-100.22 225.47,-62.63 225.47,-62.63 0,0 137.78,56.37 131.52,-31.31 -6.27,-87.68 -137.79,-125.26 -137.79,-125.26 -3.36,-18.53 -8.57,-32.87 -14.34,-44.09 63.19,-17.53 176.58,-43.51 283.65,-12.28 0,0 50.1,-62.65 256.78,100.2 0,0 678.69,74.82 620.47,901.11 -116.56,28.86 -297.54,49.24 -490.86,-21.09" /><path
         id="path102"
         style="fill:none;stroke:#100f0d;stroke-width:40;stroke-linecap:round;stroke-linejoin:round;stroke-miterlimit:4;stroke-dasharray:none;stroke-opacity:1"
         d="m 854.184,3233.04 c 0,0 0.058,0.32 0.168,0.91 -0.106,-0.58 -0.168,-0.91 -0.168,-0.91 z m 0.226,1.22 c 0.219,1.23 0.613,3.4 1.164,6.48 -0.547,-3.03 -0.945,-5.25 -1.164,-6.48 z m 890.9,-180.52 c -4.74,-71.2 -21.35,-205.4 -79.51,-272.52 0,0 -106.46,-93.94 -181.62,-125.25 0,0 -50.1,-18.79 -75.16,18.79 0,0 -43.84,156.58 -181.62,106.46 -137.79,-50.09 -56.37,-150.3 -37.58,-187.89 0,0 19.86,-39.8 -5.54,-68.73 9.36,-8.74 14.27,-19.11 11.8,-31.46 -12.52,-62.63 -150.31,-75.16 -150.31,-75.16 0,0 -175.36,31.32 -175.36,-68.89 0,-100.22 225.47,-62.63 225.47,-62.63 0,0 137.78,56.37 131.52,-31.31 -6.27,-87.68 -137.79,-125.26 -137.79,-125.26 -3.36,-18.53 -8.57,-32.87 -14.34,-44.09 63.19,-17.53 176.58,-43.51 283.65,-12.28 0,0 50.1,-62.65 256.78,100.2 0,0 678.69,74.82 620.47,901.11 -116.56,28.86 -297.54,49.24 -490.86,-21.09 z" /><path
         id="path104"
         style="fill:#fbc907;fill-opacity:1;fill-rule:nonzero;stroke:none"
         d="m 1095.88,2286.46 c 0,0 -225.47,-37.59 -225.47,62.63 0,100.21 175.36,68.89 175.36,68.89 0,0 137.79,12.53 150.31,75.16 12.53,62.63 -162.83,75.16 -162.83,75.16 0,0 -100.215,-6.27 -93.949,43.82 6.265,50.12 31.32,169.1 -62.625,206.68 -93.946,37.59 -100.207,12.53 -106.473,-6.27 l -68.89,181.63 c 76.421,116.28 144.402,196.6 144.402,196.6 l -8.942,53.63 c 5.743,-3.66 11.543,-7.43 17.411,-11.35 -380.645,253.76 -490.61,-33.84 -490.61,-33.84 -1.07,6.31 -1.969,12.51 -2.781,18.68 -63.609,-104.16 -129.887,-250.39 -122.938,-392.81 12.528,-256.77 425.879,-544.87 425.879,-544.87 0,0 37.579,-219.2 375.776,-231.73 0,0 37.58,12.52 50.1,81.42 0,0 131.52,37.58 137.79,125.26 6.26,87.68 -131.52,31.31 -131.52,31.31" /><path
         id="path106"
         style="fill:none;stroke:#100f0d;stroke-width:40;stroke-linecap:round;stroke-linejoin:round;stroke-miterlimit:4;stroke-dasharray:none;stroke-opacity:1"
         d="m 883.395,3402.19 c -10.329,-63.12 -21.516,-126.26 -26.52,-154.21 4.996,27.88 16.176,91 26.52,154.21 z m -27.536,-159.86 c 0.262,1.45 0.551,3.05 0.875,4.84 -0.324,-1.79 -0.605,-3.38 -0.875,-4.84 z m 240.021,-955.87 c 0,0 -225.47,-37.59 -225.47,62.63 0,100.21 175.36,68.89 175.36,68.89 0,0 137.79,12.53 150.31,75.16 12.53,62.63 -162.83,75.16 -162.83,75.16 0,0 -100.215,-6.27 -93.949,43.82 6.265,50.12 31.32,169.1 -62.625,206.68 -93.946,37.59 -100.207,12.53 -106.473,-6.27 l -68.89,181.63 c 76.421,116.28 144.402,196.6 144.402,196.6 l -8.942,53.63 c 5.743,-3.66 11.543,-7.43 17.411,-11.35 -380.645,253.76 -490.61,-33.84 -490.61,-33.84 -1.07,6.31 -1.969,12.51 -2.781,18.68 -63.609,-104.16 -129.887,-250.39 -122.938,-392.81 12.528,-256.77 425.879,-544.87 425.879,-544.87 0,0 37.579,-219.2 375.776,-231.73 0,0 37.58,12.52 50.1,81.42 0,0 131.52,37.58 137.79,125.26 6.26,87.68 -131.52,31.31 -131.52,31.31 z" /></g></g></svg>